<svg xmlns="http://www.w3.org/2000/svg" width="550" height="215" viewBox="0 0 550 215">
  <defs>
    <style>
      .cls-1 {
        fill: #fff;
        stroke: #591f7d;
      }

      .cls-2, .cls-4 {
        fill: #333;
      }

      .cls-2 {
        font-size: 18px;
      }

      .cls-2, .cls-6 {
        font-family: SegoeUI, Segoe UI;
      }

      .cls-3, .cls-4 {
        font-family: YuGothicUI-Regular, Yu Gothic UI;
      }

      .cls-4 {
        font-size: 21px;
      }

      .cls-5, .cls-9 {
        fill: none;
      }

      .cls-5 {
        stroke: #707070;
      }

      .cls-6, .cls-7 {
        fill: #591f7d;
      }

      .cls-6 {
        font-size: 50px;
        letter-spacing: 0.04em;
      }

      .cls-7 {
        fill-rule: evenodd;
      }

      .cls-8 {
        stroke: none;
      }
    </style>
  </defs>
  <g id="Group_3980" data-name="Group 3980" transform="translate(-130 -4649)">
    <g id="Rectangle_55" data-name="Rectangle 55" class="cls-1" transform="translate(130 4649)">
      <rect class="cls-8" width="550" height="215" rx="7"/>
      <rect class="cls-9" x="0.5" y="0.5" width="549" height="214" rx="6.5"/>
    </g>
    <g id="Group_3977" data-name="Group 3977" transform="translate(-752.5 4665)">
      <text id="AM10:00_PM18:00_日曜日診療_祝日休み_" data-name="AM10:00~PM18:00(日曜日診療・祝日休み)" class="cls-2" transform="translate(1154.21 154.694)"><tspan x="-165.797" y="0">AM10:00~PM18:00(</tspan><tspan class="cls-3" y="0">日曜日診療・祝日休み</tspan><tspan y="0">)</tspan></text>
      <g id="Group_3962" data-name="Group 3962" transform="translate(949.5 22)">
        <text id="お電話でのご予約_お問い合わせ" data-name="お電話でのご予約・お問い合わせ" class="cls-4" transform="translate(205.667 24)"><tspan x="-136.269" y="0">お電話でのご予約・お問い合わせ</tspan></text>
        <line id="Line_79" data-name="Line 79" class="cls-5" x1="34" transform="translate(382 18.5)"/>
        <line id="Line_80" data-name="Line 80" class="cls-5" x1="35" transform="translate(0 18.5)"/>
      </g>
      <g id="Group_3961" data-name="Group 3961" transform="translate(953.489 55.508)">
        <text id="_092-441-5003" data-name="092-441-5003" class="cls-6" transform="translate(236.219 58)"><tspan x="-165.761" y="0">092-441-5003</tspan></text>
        <path id="Path_245" data-name="Path 245" class="cls-7" d="M219.633,338.336A16.176,16.176,0,0,1,233.9,362.131l-3.312-2.456a1.586,1.586,0,0,0-2.211.328h0a1.584,1.584,0,0,0,.328,2.209l3.437,2.549a16.172,16.172,0,1,1-12.508-26.424Zm-.288-12.9.288.033.288-.033c6.672.17,19.587.888,23.42,5.643,1.242,1.539,2.079,6.625,1.9,7.489l-.295,1.452c-.432,2.118-5.762,1.23-7.426.892-1.7-.345-7.231-1.591-6.784-3.786l.295-1.451c.176-.863,1.078-.869,1.508-1.635.251-.45.568-1.159-.418-1.152H207.142c-.985-.007-.668.7-.418,1.152.432.767,1.334.772,1.508,1.635l.3,1.451c.447,2.2-5.089,3.441-6.785,3.786-1.665.338-6.995,1.226-7.425-.892l-.295-1.452c-.176-.864.662-5.95,1.9-7.489,3.835-4.755,16.749-5.473,23.42-5.643Zm2.928,15.763a2.087,2.087,0,1,1,.257,2.94,2.088,2.088,0,0,1-.257-2.94Zm4.9,24.582a2.087,2.087,0,1,1-2.261-1.9,2.088,2.088,0,0,1,2.261,1.9Zm-5.473,2.131a2.087,2.087,0,1,1-1.247-2.676,2.087,2.087,0,0,1,1.247,2.676Zm-5.86-.381a2.087,2.087,0,1,1,0-2.951,2.088,2.088,0,0,1,0,2.951Zm-5.15-2.821a2.087,2.087,0,1,1,1.247-2.676,2.088,2.088,0,0,1-1.247,2.676Zm-3.474-4.735a2.087,2.087,0,1,1,2.261-1.9,2.086,2.086,0,0,1-2.261,1.9Zm-1.149-5.759a2.087,2.087,0,1,1,2.852-.764,2.085,2.085,0,0,1-2.852.764Zm1.394-5.7a2.087,2.087,0,1,1,2.906.514,2.085,2.085,0,0,1-2.906-.514Zm3.674-4.582a2.087,2.087,0,1,1,2.417,1.692,2.085,2.085,0,0,1-2.417-1.692Zm5.265-2.6a2.087,2.087,0,1,1,1.476,2.556,2.086,2.086,0,0,1-1.476-2.556Zm3.23,3.884a9.291,9.291,0,1,1-9.291,9.291,9.289,9.289,0,0,1,9.291-9.291Z" transform="translate(-194 -305.349)"/>
      </g>
    </g>
  </g>
</svg>
