<svg xmlns="http://www.w3.org/2000/svg" width="40.772" height="40.772" viewBox="0 0 40.772 40.772"><path d="M24.465,7.752c5.443,0,6.088.021,8.238.119a11.284,11.284,0,0,1,3.785.7,6.751,6.751,0,0,1,3.869,3.869,11.283,11.283,0,0,1,.7,3.785c.1,2.15.119,2.794.119,8.238s-.021,6.088-.119,8.238a11.283,11.283,0,0,1-.7,3.785,6.751,6.751,0,0,1-3.869,3.869,11.283,11.283,0,0,1-3.785.7c-2.149.1-2.794.119-8.238.119s-6.088-.021-8.238-.119a11.283,11.283,0,0,1-3.785-.7,6.751,6.751,0,0,1-3.869-3.869,11.283,11.283,0,0,1-.7-3.785c-.1-2.15-.119-2.794-.119-8.238s.021-6.088.119-8.238a11.283,11.283,0,0,1,.7-3.785,6.751,6.751,0,0,1,3.869-3.869,11.283,11.283,0,0,1,3.785-.7c2.15-.1,2.794-.119,8.238-.119m0-3.673c-5.537,0-6.231.023-8.405.123a14.963,14.963,0,0,0-4.949.948,10.424,10.424,0,0,0-5.962,5.962A14.963,14.963,0,0,0,4.2,16.06c-.1,2.174-.123,2.869-.123,8.405S4.1,30.7,4.2,32.87a14.963,14.963,0,0,0,.948,4.949,10.424,10.424,0,0,0,5.962,5.962,14.963,14.963,0,0,0,4.949.948c2.174.1,2.869.123,8.405.123s6.231-.023,8.405-.123a14.963,14.963,0,0,0,4.949-.948,10.424,10.424,0,0,0,5.962-5.962,14.963,14.963,0,0,0,.948-4.949c.1-2.174.123-2.869.123-8.405s-.023-6.231-.123-8.405a14.963,14.963,0,0,0-.948-4.949,10.424,10.424,0,0,0-5.962-5.962A14.963,14.963,0,0,0,32.87,4.2C30.7,4.1,30,4.079,24.465,4.079Z" transform="translate(-4.079 -4.079)" fill="#fff"/><path d="M137.1,126.635A10.468,10.468,0,1,0,147.572,137.1,10.468,10.468,0,0,0,137.1,126.635Zm0,17.264a6.8,6.8,0,1,1,6.8-6.8A6.8,6.8,0,0,1,137.1,143.9Z" transform="translate(-116.718 -116.718)" fill="#fff"/><circle cx="2.446" cy="2.446" r="2.446" transform="translate(28.822 7.058)" fill="#fff"/></svg>