<svg xmlns="http://www.w3.org/2000/svg" width="182.311" height="40.582" viewBox="0 0 182.311 40.582"><path d="M6.673,25.086a8.842,8.842,0,0,1,8.2-8.824,3.963,3.963,0,0,1,.656-.036,8.831,8.831,0,0,1,8.824,8.824v.109a8.842,8.842,0,0,1-17.684-.073M19.835,12.725a7.571,7.571,0,0,1,.4-2.407A7.219,7.219,0,1,1,29.9,19.325a7.34,7.34,0,0,1-2.844.583,7.182,7.182,0,0,1-7.22-7.183m-5.1-3.136a15.506,15.506,0,1,0,16.262,15.5v-.255A12.726,12.726,0,1,0,14.731,9.59" fill="#591f7d"/><g transform="translate(46.927 6.126)"><path d="M134.971,16.8h.583l4.558,11.23a1.111,1.111,0,0,0,1.13.693h.4v.62h-5.068v-.62h.4a2.771,2.771,0,0,0,1.13-.182.366.366,0,0,0,.219-.365.438.438,0,0,0-.073-.292L137.2,25.3h-5.032l-.583,1.495a3.058,3.058,0,0,0-.219.948.875.875,0,0,0,.4.693,1.987,1.987,0,0,0,1.13.292h.438v.62H128.7v-.62a1.923,1.923,0,0,0,1.167-.328,2.809,2.809,0,0,0,.8-1.167Zm-.255,2.37-2.3,5.469H136.9Z" transform="translate(-128.7 -16.8)" fill="#591f7d"/><path d="M165.5,21.831l3.209-.109v6.673a.454.454,0,0,0,.146.4.79.79,0,0,0,.51.182h.912v.62h-4.594v-.62h.839a.755.755,0,0,0,.547-.182.721.721,0,0,0,.182-.51V23.362a.878.878,0,0,0-.292-.693,1.31,1.31,0,0,0-.8-.219H165.5Zm2.261-4.631a1.067,1.067,0,0,1,.693.292.884.884,0,0,1,0,1.313.934.934,0,0,1-.693.292,1,1,0,0,1-.693-.292.948.948,0,0,1,.693-1.6" transform="translate(-152.082 -17.054)" fill="#591f7d"/><path d="M192.9,17.5h4.23l3.829,9.7,3.5-9.662H208.8v.62H207.74a1.347,1.347,0,0,0-.766.146.627.627,0,0,0-.182.547v9.7a.52.52,0,0,0,.219.438,1.49,1.49,0,0,0,.8.146h.984v.62h-5.834v-.62h1.094a1.127,1.127,0,0,0,.693-.182.52.52,0,0,0,.219-.438V18.156l-4.193,11.631h-.583l-4.521-11.595v8.9a2.622,2.622,0,0,0,.219,1.2,1.591,1.591,0,0,0,.583.62,3.225,3.225,0,0,0,1.276.255v.62h-4.813v-.62a2.607,2.607,0,0,0,1.6-.474,1.993,1.993,0,0,0,.438-1.458v-8.5a.63.63,0,0,0-.182-.474,1.211,1.211,0,0,0-.729-.146h-1.094V17.5Z" transform="translate(-169.491 -17.245)" fill="#591f7d"/><path d="M244.7,33.457h-5.761a4.064,4.064,0,0,0,.693,2.516,2.487,2.487,0,0,0,1.9.839,3.005,3.005,0,0,0,2.7-1.86l.547.219a3.961,3.961,0,0,1-3.646,2.37,3.66,3.66,0,0,1-2.735-1.13A3.992,3.992,0,0,1,237.3,33.53a4.317,4.317,0,0,1,1.094-3.063,3.558,3.558,0,0,1,2.7-1.167,3.338,3.338,0,0,1,2.005.583,3.514,3.514,0,0,1,1.276,1.677,4.541,4.541,0,0,1,.328,1.9m-5.761-.62h3.5a.542.542,0,0,0,.474-.219,1.127,1.127,0,0,0,.182-.693,2.2,2.2,0,0,0-.583-1.568,1.759,1.759,0,0,0-1.386-.62,1.967,1.967,0,0,0-1.531.766,3.631,3.631,0,0,0-.656,2.334" transform="translate(-197.702 -24.742)" fill="#591f7d"/><path d="M265.666,17.246,268.8,17.1V27.711a1.2,1.2,0,0,0,.255.875.891.891,0,0,0,.729.255h.547v.62h-2.771l-.219-1.568a3.9,3.9,0,0,1-1.13,1.276,2.661,2.661,0,0,1-1.495.438,2.97,2.97,0,0,1-2.334-1.094A4.217,4.217,0,0,1,261.4,25.6a4.04,4.04,0,0,1,1.24-3.136,3.116,3.116,0,0,1,2.224-.912,2.542,2.542,0,0,1,1.386.365,3.18,3.18,0,0,1,1.057,1.13V18.668a.692.692,0,0,0-.292-.547,1.4,1.4,0,0,0-.875-.219h-.583v-.656Zm-.474,4.959a1.748,1.748,0,0,0-1.458.729,4.221,4.221,0,0,0-.547,2.479,4.749,4.749,0,0,0,.547,2.662,1.675,1.675,0,0,0,1.422.766,1.965,1.965,0,0,0,1.6-.875,4.137,4.137,0,0,0,.656-2.516,3.934,3.934,0,0,0-.729-2.479,1.849,1.849,0,0,0-1.495-.766" transform="translate(-213.015 -16.991)" fill="#591f7d"/><path d="M288.4,21.831l3.209-.109v6.673a.454.454,0,0,0,.146.4.79.79,0,0,0,.51.182h.912v.62h-4.594v-.62h.839a.755.755,0,0,0,.547-.182.721.721,0,0,0,.182-.51V23.362a.776.776,0,0,0-.292-.693,1.31,1.31,0,0,0-.8-.219H288.4v-.62Zm2.261-4.631a1.067,1.067,0,0,1,.693.292.884.884,0,0,1,0,1.313.934.934,0,0,1-.693.292,1,1,0,0,1-.693-.292.884.884,0,0,1,0-1.313.862.862,0,0,1,.693-.292" transform="translate(-230.17 -17.054)" fill="#591f7d"/><path d="M310.7,34.888l.547.146a2.862,2.862,0,0,1-2.953,2.37,3.71,3.71,0,0,1-2.735-1.057A3.823,3.823,0,0,1,304.5,33.5a4.184,4.184,0,0,1,1.167-3.172,3.8,3.8,0,0,1,2.771-1.13,3.1,3.1,0,0,1,1.969.62,1.812,1.812,0,0,1,.766,1.386,1.107,1.107,0,0,1-.292.766.862.862,0,0,1-.693.292.879.879,0,0,1-.656-.255.8.8,0,0,1-.255-.62,1.067,1.067,0,0,1,.292-.693c.109-.109.146-.182.146-.255a.635.635,0,0,0-.328-.474,1.6,1.6,0,0,0-.912-.219,1.928,1.928,0,0,0-1.6.729,4.736,4.736,0,0,0-.766,2.808A3.9,3.9,0,0,0,306.8,35.8a2.138,2.138,0,0,0,1.75.839c.912.073,1.677-.51,2.151-1.75" transform="translate(-240.399 -24.679)" fill="#591f7d"/><path d="M335.6,36.347l.328.474a2.01,2.01,0,0,1-1.386.62,1.659,1.659,0,0,1-.984-.292,2.357,2.357,0,0,1-.693-1.094,5.294,5.294,0,0,1-1.422,1.094,3.639,3.639,0,0,1-1.495.292,3.092,3.092,0,0,1-1.9-.51,1.559,1.559,0,0,1-.656-1.313,2.386,2.386,0,0,1,1.458-2.005,10.605,10.605,0,0,1,3.938-1.057V31.388a1.539,1.539,0,0,0-.51-1.094,2.068,2.068,0,0,0-1.349-.438,2.748,2.748,0,0,0-1.276.292c-.255.146-.4.292-.4.438a.868.868,0,0,0,.219.4.9.9,0,0,1,.255.583.8.8,0,0,1-.255.62,1.018,1.018,0,0,1-.656.219,1.084,1.084,0,0,1-.729-.292,1.018,1.018,0,0,1-.292-.729,1.887,1.887,0,0,1,.948-1.495,4.455,4.455,0,0,1,2.516-.693,3.473,3.473,0,0,1,2.188.583,1.784,1.784,0,0,1,.766,1.458v4.23a1.683,1.683,0,0,0,.182.839.569.569,0,0,0,.474.292,1.263,1.263,0,0,0,.729-.255m-2.844-3.282a7.049,7.049,0,0,0-3.1.948,1.7,1.7,0,0,0-.693,1.422,1.217,1.217,0,0,0,.365.984,1.157,1.157,0,0,0,.912.365,2.4,2.4,0,0,0,1.75-.729,2.5,2.5,0,0,0,.729-1.86v-1.13Z" transform="translate(-254.95 -24.679)" fill="#591f7d"/><path d="M356.609,17.2V28.43a.468.468,0,0,0,.146.365.871.871,0,0,0,.51.182h.839v.62h-4.558v-.62h.8a.856.856,0,0,0,.583-.182.721.721,0,0,0,.182-.51V18.8a.8.8,0,0,0-.219-.62,1.145,1.145,0,0,0-.766-.255H353.4v-.62Z" transform="translate(-271.469 -17.054)" fill="#591f7d"/><path d="M387.47,18.167,388.053,17h.547l.219,4.922h-.583a7.5,7.5,0,0,0-1.422-3.063,3.258,3.258,0,0,0-2.552-1.24,3.19,3.19,0,0,0-2.625,1.386,8.256,8.256,0,0,0-1.021,4.667,6.6,6.6,0,0,0,1.167,4.193,3.389,3.389,0,0,0,2.771,1.24,3.774,3.774,0,0,0,2.589-.948,4.993,4.993,0,0,0,1.386-2.881h.62a5.114,5.114,0,0,1-1.568,3.355,4.556,4.556,0,0,1-3.245,1.167,5.714,5.714,0,0,1-2.917-.766,5.422,5.422,0,0,1-2.115-2.224,6.22,6.22,0,0,1-.8-3.172,7.015,7.015,0,0,1,.839-3.427,5.964,5.964,0,0,1,2.115-2.407,5.008,5.008,0,0,1,2.771-.8,4.77,4.77,0,0,1,1.6.255,5.017,5.017,0,0,1,1.641.912" transform="translate(-287.417 -16.927)" fill="#591f7d"/><path d="M413.909,17.2V28.43a.468.468,0,0,0,.146.365.871.871,0,0,0,.51.182h.839v.62h-4.558v-.62h.8a.856.856,0,0,0,.583-.182.592.592,0,0,0,.182-.51V18.8a.8.8,0,0,0-.219-.62,1.144,1.144,0,0,0-.766-.255H410.7v-.62Z" transform="translate(-307.876 -17.054)" fill="#591f7d"/><path d="M425.5,21.831l3.209-.109v6.673a.454.454,0,0,0,.146.4.791.791,0,0,0,.51.182h.912v.62h-4.594v-.62h.839a.755.755,0,0,0,.547-.182.721.721,0,0,0,.182-.51V23.362a.878.878,0,0,0-.292-.693,1.31,1.31,0,0,0-.8-.219H425.5Zm2.224-4.631a1.067,1.067,0,0,1,.693.292.884.884,0,0,1,0,1.313.934.934,0,0,1-.693.292,1,1,0,0,1-.693-.292.948.948,0,0,1,.693-1.6" transform="translate(-317.28 -17.054)" fill="#591f7d"/><path d="M439.7,29.646l2.662-.146a15.822,15.822,0,0,1,.255,1.714,4.252,4.252,0,0,1,1.276-1.276,3.2,3.2,0,0,1,1.677-.438,2.955,2.955,0,0,1,1.349.292,2.216,2.216,0,0,1,.875.948,3.18,3.18,0,0,1,.328,1.458V35.99a.792.792,0,0,0,.182.583,1.083,1.083,0,0,0,.656.182h.583v.62h-4.266v-.62h.4a1.441,1.441,0,0,0,.8-.182.612.612,0,0,0,.219-.51V32.745a3.014,3.014,0,0,0-.328-1.6,1.581,1.581,0,0,0-1.458-.729,1.953,1.953,0,0,0-1.6.766,2.919,2.919,0,0,0-.656,1.969v2.881a.671.671,0,0,0,.219.583,1.083,1.083,0,0,0,.656.182h.547v.62h-4.266v-.62h.547a.885.885,0,0,0,.656-.182.561.561,0,0,0,.219-.4V31.177a1.045,1.045,0,0,0-.292-.766,1.119,1.119,0,0,0-.8-.255h-.4v-.51Z" transform="translate(-326.302 -24.869)" fill="#591f7d"/><path d="M467.4,21.831l3.209-.109v6.673a.454.454,0,0,0,.146.4.79.79,0,0,0,.51.182h.912v.62h-4.594v-.62h.839a.755.755,0,0,0,.547-.182.721.721,0,0,0,.182-.51V23.362a.776.776,0,0,0-.292-.693,1.31,1.31,0,0,0-.8-.219H467.4v-.62Zm2.224-4.631a1.067,1.067,0,0,1,.693.292.884.884,0,0,1,0,1.313.934.934,0,0,1-.693.292,1,1,0,0,1-.693-.292.948.948,0,0,1,.693-1.6" transform="translate(-343.902 -17.054)" fill="#591f7d"/><path d="M487.7,34.888l.547.146a2.862,2.862,0,0,1-2.953,2.37,3.71,3.71,0,0,1-2.735-1.057A3.823,3.823,0,0,1,481.5,33.5a4.184,4.184,0,0,1,1.167-3.172,3.8,3.8,0,0,1,2.771-1.13,3.1,3.1,0,0,1,1.969.62,1.812,1.812,0,0,1,.766,1.386,1.107,1.107,0,0,1-.292.766.862.862,0,0,1-.693.292.879.879,0,0,1-.656-.255.8.8,0,0,1-.255-.62,1.067,1.067,0,0,1,.292-.693c.109-.109.146-.182.146-.255a.635.635,0,0,0-.328-.474,1.6,1.6,0,0,0-.912-.219,1.928,1.928,0,0,0-1.6.729,4.736,4.736,0,0,0-.766,2.808A3.9,3.9,0,0,0,483.8,35.8a2.138,2.138,0,0,0,1.75.839c.948.073,1.677-.51,2.151-1.75" transform="translate(-352.861 -24.679)" fill="#591f7d"/></g><g transform="translate(47.547 28.696)"><path d="M137.729,80.632a.331.331,0,0,0-.109-.255,1.047,1.047,0,0,0-.438-.073h-4.74v1.823h2.881a1.19,1.19,0,0,0,.438-.073c.109-.036.146-.109.146-.255h.255v2.115h-.255c0-.219-.036-.365-.146-.438a.778.778,0,0,0-.438-.109h-2.881v2.844a.2.2,0,0,0,.109.182.728.728,0,0,0,.328.073v.255H130.4v-.255c.255,0,.365-.073.365-.255V79.575c0-.182-.109-.255-.365-.255v-.255h6.782a.633.633,0,0,0,.438-.109.331.331,0,0,0,.109-.255h.255v1.932Z" transform="translate(-130.4 -78.7)" fill="#591f7d"/><path d="M157.543,79.955c-.219,0-.328.073-.328.255v4.375a1.359,1.359,0,0,0,.583,1.276,3.733,3.733,0,0,0,1.75.328,3.472,3.472,0,0,0,1.714-.328,1.323,1.323,0,0,0,.583-1.276V80.21c0-.182-.146-.255-.438-.255V79.7h2.334v.255c-.219,0-.365.073-.365.255v4.339a3.2,3.2,0,0,1-.255,1.422,2.527,2.527,0,0,1-.729.912,2.93,2.93,0,0,1-1.24.438,13.479,13.479,0,0,1-3.427,0,3.123,3.123,0,0,1-1.24-.438,1.82,1.82,0,0,1-.729-.912,3.2,3.2,0,0,1-.255-1.422V80.21c0-.182-.146-.255-.4-.255V79.7h2.406v.255Z" transform="translate(-146.094 -79.335)" fill="#591f7d"/><path d="M187.605,86.847a.278.278,0,0,0,.073.182.391.391,0,0,0,.219.073v.255h-2.3V87.1c.219,0,.328-.073.328-.255V80.21c0-.182-.109-.255-.328-.255V79.7h2.3v.255a.518.518,0,0,0-.219.073c-.073.036-.073.109-.073.182v2.771l3.026-2.37a2.981,2.981,0,0,0,.328-.292.333.333,0,0,0,.109-.182.189.189,0,0,0-.073-.146.219.219,0,0,0-.146-.036V79.7h3.063v.255a.72.72,0,0,0-.51.219l-3.355,2.662,3.063,3.537a4.953,4.953,0,0,0,.438.438,1.225,1.225,0,0,0,.51.292v.255h-2.7V87.1c.109,0,.182-.036.182-.109a1.1,1.1,0,0,0-.219-.328l-2.516-2.881-1.24.948v2.115Z" transform="translate(-165.473 -79.335)" fill="#591f7d"/><path d="M215.643,79.955c-.219,0-.328.073-.328.255v4.375a1.359,1.359,0,0,0,.583,1.276,3.733,3.733,0,0,0,1.75.328,3.472,3.472,0,0,0,1.714-.328,1.323,1.323,0,0,0,.583-1.276V80.21c0-.182-.146-.255-.438-.255V79.7h2.334v.255c-.219,0-.365.073-.365.255v4.339a3.2,3.2,0,0,1-.255,1.422,2.527,2.527,0,0,1-.729.912,2.93,2.93,0,0,1-1.24.438,13.479,13.479,0,0,1-3.427,0,3.123,3.123,0,0,1-1.24-.438,1.82,1.82,0,0,1-.729-.912,3.2,3.2,0,0,1-.255-1.422V80.21c0-.182-.146-.255-.4-.255V79.7h2.407v.255Z" transform="translate(-183.009 -79.335)" fill="#591f7d"/><path d="M248.14,79.5a5.135,5.135,0,0,1,1.641.255,4.931,4.931,0,0,1,1.531.729,3.947,3.947,0,0,1,1.13,1.2,3.281,3.281,0,0,1,.438,1.75,3.465,3.465,0,0,1-.438,1.75,3.574,3.574,0,0,1-1.13,1.2,4.5,4.5,0,0,1-1.531.693,6.262,6.262,0,0,1-3.282,0,4.837,4.837,0,0,1-1.531-.693,3.947,3.947,0,0,1-1.13-1.2,3.281,3.281,0,0,1-.438-1.75,3.464,3.464,0,0,1,.438-1.75,3.573,3.573,0,0,1,1.13-1.2,5.4,5.4,0,0,1,1.531-.729,5.461,5.461,0,0,1,1.641-.255m0,1.313a3.819,3.819,0,0,0-1.094.182,3.161,3.161,0,0,0-.984.51,2.564,2.564,0,0,0-.729.8,2.2,2.2,0,0,0,0,2.188,2.564,2.564,0,0,0,.729.8,3.161,3.161,0,0,0,.984.51,3.373,3.373,0,0,0,2.188,0,3.161,3.161,0,0,0,.984-.51,2.564,2.564,0,0,0,.729-.8,2.2,2.2,0,0,0,0-2.188,2.564,2.564,0,0,0-.729-.8,3.161,3.161,0,0,0-.984-.51,3.437,3.437,0,0,0-1.094-.182" transform="translate(-202.198 -79.208)" fill="#591f7d"/><path d="M277.305,86.847a.278.278,0,0,0,.073.182.391.391,0,0,0,.219.073v.255h-2.3V87.1c.219,0,.328-.073.328-.255V80.21c0-.182-.109-.255-.328-.255V79.7h2.3v.255a.518.518,0,0,0-.219.073c-.073.036-.073.109-.073.182v2.771l3.026-2.37a2.982,2.982,0,0,0,.328-.292.333.333,0,0,0,.109-.182.189.189,0,0,0-.073-.146.219.219,0,0,0-.146-.036V79.7h3.063v.255a.72.72,0,0,0-.51.219l-3.355,2.662,3.063,3.537a4.95,4.95,0,0,0,.438.438,1.225,1.225,0,0,0,.51.292v.255h-2.7V87.1c.109,0,.182-.036.182-.109a1.1,1.1,0,0,0-.219-.328l-2.516-2.881-1.24.948v2.115Z" transform="translate(-222.466 -79.335)" fill="#591f7d"/><path d="M300.273,87.138a.5.5,0,0,0,.292-.182,3.211,3.211,0,0,0,.219-.365l2.7-5.688c.073-.109.109-.255.182-.365a.858.858,0,0,0,.073-.292.22.22,0,0,0-.109-.219.518.518,0,0,0-.219-.073V79.7h2.479v.255c-.073.036-.146.036-.219.073a.22.22,0,0,0-.109.219.463.463,0,0,0,.036.219,2.152,2.152,0,0,0,.146.292l3.026,5.943a.373.373,0,0,0,.182.219,2.167,2.167,0,0,0,.292.146v.255h-2.589v-.255a.276.276,0,0,0,.146-.036c.073-.036.073-.073.073-.146a.815.815,0,0,0-.109-.365l-.547-1.094h-3.573l-.51,1.021a1.145,1.145,0,0,0-.146.438c0,.109.109.146.292.146v.255H300.2v-.146Zm5.506-2.735-1.24-2.735L303.153,84.4Z" transform="translate(-238.287 -79.335)" fill="#591f7d"/></g></svg>