<svg xmlns="http://www.w3.org/2000/svg" width="286.332" height="63.737" viewBox="0 0 286.332 63.737"><path d="M10.48,39.4A13.887,13.887,0,0,1,23.365,25.541a6.224,6.224,0,0,1,1.031-.057A13.87,13.87,0,0,1,38.254,39.342v.172A13.887,13.887,0,0,1,10.48,39.4M31.153,19.986a11.891,11.891,0,0,1,.63-3.78A11.338,11.338,0,1,1,46.958,30.351a11.528,11.528,0,0,1-4.467.916A11.279,11.279,0,0,1,31.153,19.986m-8.017-4.925A24.353,24.353,0,1,0,48.676,39.4V39A19.987,19.987,0,1,0,23.136,15.061" fill="#fff"/><g transform="translate(73.702 9.621)"><path d="M138.55,16.8h.916l7.158,17.638a1.746,1.746,0,0,0,1.775,1.088h.63V36.5h-7.96v-.974h.63a4.353,4.353,0,0,0,1.775-.286.575.575,0,0,0,.344-.573.689.689,0,0,0-.115-.458l-1.661-4.066h-7.9l-.916,2.348a4.8,4.8,0,0,0-.344,1.489,1.375,1.375,0,0,0,.63,1.088,3.12,3.12,0,0,0,1.775.458h.687V36.5H128.7v-.974a3.02,3.02,0,0,0,1.833-.515,4.411,4.411,0,0,0,1.26-1.833Zm-.4,3.722-3.608,8.59h7.044Z" transform="translate(-128.7 -16.8)" fill="#fff"/><path d="M165.5,24.473l5.039-.172v10.48a.714.714,0,0,0,.229.63,1.241,1.241,0,0,0,.8.286H173v.974h-7.216V35.7H167.1a1.185,1.185,0,0,0,.859-.286,1.133,1.133,0,0,0,.286-.8V26.878a1.378,1.378,0,0,0-.458-1.088,2.057,2.057,0,0,0-1.26-.344H165.5Zm3.551-7.273a1.675,1.675,0,0,1,1.088.458,1.389,1.389,0,0,1,0,2.062,1.466,1.466,0,0,1-1.088.458,1.565,1.565,0,0,1-1.088-.458,1.489,1.489,0,0,1,1.088-2.52" transform="translate(-144.426 -16.971)" fill="#fff"/><path d="M192.9,17.5h6.643l6.013,15.233,5.5-15.176h6.815v.974h-1.661a2.115,2.115,0,0,0-1.2.229.985.985,0,0,0-.286.859V34.852a.816.816,0,0,0,.344.687,2.341,2.341,0,0,0,1.26.229h1.546v.974h-9.163v-.974h1.718a1.77,1.77,0,0,0,1.088-.286.816.816,0,0,0,.344-.687V18.531L205.27,36.8h-.916l-7.1-18.211V32.561a4.119,4.119,0,0,0,.344,1.89,2.5,2.5,0,0,0,.916.974,5.066,5.066,0,0,0,2,.4V36.8h-7.559v-.974a4.094,4.094,0,0,0,2.52-.744,3.13,3.13,0,0,0,.687-2.291V19.447a.989.989,0,0,0-.286-.744,1.9,1.9,0,0,0-1.145-.229h-1.718V17.5Z" transform="translate(-156.135 -17.099)" fill="#fff"/><path d="M248.925,35.828h-9.048a6.383,6.383,0,0,0,1.088,3.951,3.907,3.907,0,0,0,2.978,1.317c1.775,0,3.207-.974,4.238-2.921l.859.344a6.22,6.22,0,0,1-5.727,3.722,5.748,5.748,0,0,1-4.295-1.775,6.269,6.269,0,0,1-1.718-4.524,6.78,6.78,0,0,1,1.718-4.81,5.587,5.587,0,0,1,4.238-1.833,5.243,5.243,0,0,1,3.15.916,5.52,5.52,0,0,1,2,2.634,7.132,7.132,0,0,1,.515,2.978m-9.048-.974h5.5a.851.851,0,0,0,.744-.344,1.77,1.77,0,0,0,.286-1.088,3.463,3.463,0,0,0-.916-2.462,2.762,2.762,0,0,0-2.176-.974,3.09,3.09,0,0,0-2.405,1.2,5.7,5.7,0,0,0-1.031,3.665" transform="translate(-175.109 -22.142)" fill="#fff"/><path d="M268.1,17.329l4.925-.229V33.765a1.881,1.881,0,0,0,.4,1.374,1.4,1.4,0,0,0,1.145.4h.859v.974h-4.352l-.344-2.462a6.117,6.117,0,0,1-1.775,2,4.18,4.18,0,0,1-2.348.687,4.665,4.665,0,0,1-3.665-1.718,6.623,6.623,0,0,1-1.546-4.581,6.346,6.346,0,0,1,1.947-4.925,4.894,4.894,0,0,1,3.493-1.432,3.992,3.992,0,0,1,2.176.573,4.994,4.994,0,0,1,1.661,1.775V19.562a1.087,1.087,0,0,0-.458-.859,2.2,2.2,0,0,0-1.374-.344h-.916V17.329Zm-.744,7.788a2.745,2.745,0,0,0-2.291,1.145,6.629,6.629,0,0,0-.859,3.894,7.458,7.458,0,0,0,.859,4.18,2.63,2.63,0,0,0,2.233,1.2,3.087,3.087,0,0,0,2.52-1.374,6.5,6.5,0,0,0,1.031-3.951A6.178,6.178,0,0,0,269.7,26.32a2.9,2.9,0,0,0-2.348-1.2" transform="translate(-185.408 -16.928)" fill="#fff"/><path d="M288.4,24.473l5.039-.172v10.48a.714.714,0,0,0,.229.63,1.241,1.241,0,0,0,.8.286H295.9v.974h-7.216V35.7H290a1.185,1.185,0,0,0,.859-.286,1.133,1.133,0,0,0,.286-.8V26.878a1.219,1.219,0,0,0-.458-1.088,2.057,2.057,0,0,0-1.26-.344H288.4v-.974Zm3.551-7.273a1.675,1.675,0,0,1,1.088.458,1.389,1.389,0,0,1,0,2.062,1.466,1.466,0,0,1-1.088.458,1.564,1.564,0,0,1-1.088-.458,1.389,1.389,0,0,1,0-2.062,1.354,1.354,0,0,1,1.088-.458" transform="translate(-196.946 -16.971)" fill="#fff"/><path d="M314.235,38.134l.859.229c-.687,2.462-2.233,3.722-4.639,3.722a5.826,5.826,0,0,1-4.295-1.661,6,6,0,0,1-1.661-4.467,6.571,6.571,0,0,1,1.833-4.982,5.965,5.965,0,0,1,4.352-1.775,4.868,4.868,0,0,1,3.092.974,2.845,2.845,0,0,1,1.2,2.176,1.739,1.739,0,0,1-.458,1.2,1.354,1.354,0,0,1-1.088.458,1.38,1.38,0,0,1-1.031-.4,1.256,1.256,0,0,1-.4-.974,1.675,1.675,0,0,1,.458-1.088c.172-.172.229-.286.229-.4a1,1,0,0,0-.515-.744,2.518,2.518,0,0,0-1.432-.344,3.028,3.028,0,0,0-2.52,1.145,7.438,7.438,0,0,0-1.2,4.41,6.128,6.128,0,0,0,1.088,3.951,3.358,3.358,0,0,0,2.749,1.317c1.432.115,2.634-.8,3.379-2.749" transform="translate(-203.826 -22.099)" fill="#fff"/><path d="M340.285,40.424l.515.744a3.157,3.157,0,0,1-2.176.974,2.606,2.606,0,0,1-1.546-.458,3.7,3.7,0,0,1-1.088-1.718,8.315,8.315,0,0,1-2.233,1.718,5.714,5.714,0,0,1-2.348.458,4.856,4.856,0,0,1-2.978-.8,2.449,2.449,0,0,1-1.031-2.062c0-1.26.8-2.291,2.291-3.15a16.656,16.656,0,0,1,6.185-1.661V32.636a2.416,2.416,0,0,0-.8-1.718,3.248,3.248,0,0,0-2.119-.687,4.316,4.316,0,0,0-2,.458c-.4.229-.63.458-.63.687a1.363,1.363,0,0,0,.344.63,1.417,1.417,0,0,1,.4.916,1.256,1.256,0,0,1-.4.974,1.6,1.6,0,0,1-1.031.344,1.7,1.7,0,0,1-1.145-.458,1.6,1.6,0,0,1-.458-1.145,2.964,2.964,0,0,1,1.489-2.348A7,7,0,0,1,333.47,29.2a5.455,5.455,0,0,1,3.436.916,2.8,2.8,0,0,1,1.2,2.291V39.05a2.644,2.644,0,0,0,.286,1.317.894.894,0,0,0,.744.458,1.984,1.984,0,0,0,1.145-.4m-4.467-5.154a11.071,11.071,0,0,0-4.868,1.489,2.665,2.665,0,0,0-1.088,2.233,1.911,1.911,0,0,0,.573,1.546,1.817,1.817,0,0,0,1.432.573,3.761,3.761,0,0,0,2.749-1.145,3.926,3.926,0,0,0,1.145-2.921V35.27Z" transform="translate(-213.612 -22.099)" fill="#fff"/><path d="M358.439,17.2V34.838a.735.735,0,0,0,.229.573,1.368,1.368,0,0,0,.8.286h1.317v.974h-7.158V35.7h1.26a1.345,1.345,0,0,0,.916-.286,1.133,1.133,0,0,0,.286-.8V19.72a1.259,1.259,0,0,0-.344-.974,1.8,1.8,0,0,0-1.2-.4H353.4v-.974Z" transform="translate(-224.723 -16.971)" fill="#fff"/><path d="M392.588,18.833,393.5,17h.859l.344,7.731h-.916a11.774,11.774,0,0,0-2.233-4.81,5.117,5.117,0,0,0-4.009-1.947,5.01,5.01,0,0,0-4.123,2.176c-1.031,1.432-1.6,3.894-1.6,7.33,0,2.863.63,5.1,1.833,6.586a5.322,5.322,0,0,0,4.352,1.947,5.927,5.927,0,0,0,4.066-1.489A7.842,7.842,0,0,0,394.248,30h.974a8.032,8.032,0,0,1-2.462,5.269,7.155,7.155,0,0,1-5.1,1.833,8.975,8.975,0,0,1-4.581-1.2A8.516,8.516,0,0,1,379.76,32.4a9.769,9.769,0,0,1-1.26-4.982,11.017,11.017,0,0,1,1.317-5.383,9.367,9.367,0,0,1,3.321-3.78A7.866,7.866,0,0,1,387.491,17a7.492,7.492,0,0,1,2.52.4,7.88,7.88,0,0,1,2.577,1.432" transform="translate(-235.449 -16.885)" fill="#fff"/><path d="M415.739,17.2V34.838a.735.735,0,0,0,.229.573,1.368,1.368,0,0,0,.8.286h1.317v.974h-7.158V35.7h1.26a1.345,1.345,0,0,0,.916-.286.93.93,0,0,0,.286-.8V19.72a1.259,1.259,0,0,0-.344-.974,1.8,1.8,0,0,0-1.2-.4H410.7v-.974Z" transform="translate(-249.209 -16.971)" fill="#fff"/><path d="M425.5,24.473l5.039-.172v10.48a.714.714,0,0,0,.229.63,1.241,1.241,0,0,0,.8.286H433v.974h-7.216V35.7H427.1a1.185,1.185,0,0,0,.859-.286,1.133,1.133,0,0,0,.286-.8V26.878a1.378,1.378,0,0,0-.458-1.088,2.057,2.057,0,0,0-1.26-.344H425.5Zm3.493-7.273a1.675,1.675,0,0,1,1.088.458,1.389,1.389,0,0,1,0,2.062,1.466,1.466,0,0,1-1.088.458,1.565,1.565,0,0,1-1.088-.458,1.489,1.489,0,0,1,1.088-2.52" transform="translate(-255.533 -16.971)" fill="#fff"/><path d="M439.7,29.729l4.18-.229a24.856,24.856,0,0,1,.4,2.692,6.677,6.677,0,0,1,2-2,5.02,5.02,0,0,1,2.634-.687,4.64,4.64,0,0,1,2.119.458,3.481,3.481,0,0,1,1.374,1.489,4.994,4.994,0,0,1,.515,2.291v5.956a1.244,1.244,0,0,0,.286.916,1.7,1.7,0,0,0,1.031.286h.916v.974h-6.7V40.9h.63a2.264,2.264,0,0,0,1.26-.286.961.961,0,0,0,.344-.8V34.6a4.733,4.733,0,0,0-.515-2.52,2.483,2.483,0,0,0-2.291-1.145,3.067,3.067,0,0,0-2.52,1.2,4.584,4.584,0,0,0-1.031,3.092v4.524a1.054,1.054,0,0,0,.344.916,1.7,1.7,0,0,0,1.031.286h.859v.974h-6.7v-.974h.859a1.39,1.39,0,0,0,1.031-.286.881.881,0,0,0,.344-.63v-7.9a1.64,1.64,0,0,0-.458-1.2,1.757,1.757,0,0,0-1.26-.4h-.63v-.8Z" transform="translate(-261.602 -22.227)" fill="#fff"/><path d="M467.4,24.473l5.039-.172v10.48a.714.714,0,0,0,.229.63,1.241,1.241,0,0,0,.8.286H474.9v.974h-7.216V35.7H469a1.185,1.185,0,0,0,.859-.286,1.133,1.133,0,0,0,.286-.8V26.878a1.219,1.219,0,0,0-.458-1.088,2.057,2.057,0,0,0-1.26-.344H467.4v-.974Zm3.493-7.273a1.675,1.675,0,0,1,1.088.458,1.389,1.389,0,0,1,0,2.062,1.466,1.466,0,0,1-1.088.458,1.565,1.565,0,0,1-1.088-.458,1.489,1.489,0,0,1,1.088-2.52" transform="translate(-273.439 -16.971)" fill="#fff"/><path d="M491.235,38.134l.859.229c-.687,2.462-2.233,3.722-4.639,3.722a5.826,5.826,0,0,1-4.295-1.661,6,6,0,0,1-1.661-4.467,6.571,6.571,0,0,1,1.833-4.982,5.965,5.965,0,0,1,4.352-1.775,4.868,4.868,0,0,1,3.092.974,2.845,2.845,0,0,1,1.2,2.176,1.739,1.739,0,0,1-.458,1.2,1.354,1.354,0,0,1-1.088.458,1.38,1.38,0,0,1-1.031-.4,1.256,1.256,0,0,1-.4-.974,1.675,1.675,0,0,1,.458-1.088c.172-.172.229-.286.229-.4a1,1,0,0,0-.515-.744,2.519,2.519,0,0,0-1.432-.344,3.028,3.028,0,0,0-2.52,1.145,7.438,7.438,0,0,0-1.2,4.41,6.128,6.128,0,0,0,1.088,3.951,3.358,3.358,0,0,0,2.749,1.317c1.489.115,2.634-.8,3.379-2.749" transform="translate(-279.464 -22.099)" fill="#fff"/></g><g transform="translate(74.675 45.069)"><path d="M141.911,81.735a.52.52,0,0,0-.172-.4,1.645,1.645,0,0,0-.687-.115h-7.445v2.863h4.524a1.87,1.87,0,0,0,.687-.115c.172-.057.229-.172.229-.4h.4v3.321h-.4c0-.344-.057-.573-.229-.687a1.221,1.221,0,0,0-.687-.172h-4.524V90.5a.315.315,0,0,0,.172.286,1.143,1.143,0,0,0,.515.115v.4H130.4v-.4c.4,0,.573-.115.573-.4V80.074c0-.286-.172-.4-.573-.4v-.4h10.652a1,1,0,0,0,.687-.172.52.52,0,0,0,.172-.4h.4v3.035Z" transform="translate(-130.4 -78.7)" fill="#fff"/><path d="M158.937,80.1c-.344,0-.515.115-.515.4v6.872a2.135,2.135,0,0,0,.916,2,5.862,5.862,0,0,0,2.749.515,5.454,5.454,0,0,0,2.692-.515,2.077,2.077,0,0,0,.916-2V80.5c0-.286-.229-.4-.687-.4v-.4h3.665v.4c-.344,0-.573.115-.573.4v6.815a5.031,5.031,0,0,1-.4,2.233,3.969,3.969,0,0,1-1.145,1.432,4.6,4.6,0,0,1-1.947.687,21.169,21.169,0,0,1-5.383,0,4.905,4.905,0,0,1-1.947-.687,2.859,2.859,0,0,1-1.145-1.432,5.03,5.03,0,0,1-.4-2.233V80.5c0-.286-.229-.4-.63-.4v-.4h3.78v.4Z" transform="translate(-140.955 -79.127)" fill="#fff"/><path d="M188.75,90.924a.437.437,0,0,0,.115.286.614.614,0,0,0,.344.115v.4H185.6v-.4c.344,0,.515-.115.515-.4V80.5c0-.286-.172-.4-.515-.4v-.4h3.608v.4a.814.814,0,0,0-.344.115c-.115.057-.115.172-.115.286v4.352l4.753-3.722a4.681,4.681,0,0,0,.515-.458.523.523,0,0,0,.172-.286.3.3,0,0,0-.115-.229.344.344,0,0,0-.229-.057v-.4h4.81v.4a1.131,1.131,0,0,0-.8.344l-5.269,4.18,4.81,5.555a7.776,7.776,0,0,0,.687.687,1.924,1.924,0,0,0,.8.458v.4h-4.238v-.4c.172,0,.286-.057.286-.172a1.731,1.731,0,0,0-.344-.515l-3.951-4.524L188.692,87.6v3.321Z" transform="translate(-153.989 -79.127)" fill="#fff"/><path d="M217.037,80.1c-.344,0-.515.115-.515.4v6.872a2.135,2.135,0,0,0,.916,2,5.862,5.862,0,0,0,2.749.515,5.454,5.454,0,0,0,2.692-.515,2.077,2.077,0,0,0,.916-2V80.5c0-.286-.229-.4-.687-.4v-.4h3.665v.4c-.344,0-.573.115-.573.4v6.815a5.031,5.031,0,0,1-.4,2.233,3.969,3.969,0,0,1-1.145,1.432,4.6,4.6,0,0,1-1.947.687,21.17,21.17,0,0,1-5.383,0,4.905,4.905,0,0,1-1.947-.687,2.859,2.859,0,0,1-1.145-1.432,5.031,5.031,0,0,1-.4-2.233V80.5c0-.286-.229-.4-.63-.4v-.4h3.78v.4Z" transform="translate(-165.783 -79.127)" fill="#fff"/><path d="M250.845,79.5a8.065,8.065,0,0,1,2.577.4,7.744,7.744,0,0,1,2.405,1.145,6.2,6.2,0,0,1,1.775,1.89,5.152,5.152,0,0,1,.687,2.749,5.441,5.441,0,0,1-.687,2.749,5.613,5.613,0,0,1-1.775,1.89,7.065,7.065,0,0,1-2.405,1.088,9.836,9.836,0,0,1-5.154,0,7.6,7.6,0,0,1-2.405-1.088,6.2,6.2,0,0,1-1.775-1.89,5.152,5.152,0,0,1-.687-2.749,5.441,5.441,0,0,1,.687-2.749,5.613,5.613,0,0,1,1.775-1.89,8.479,8.479,0,0,1,2.405-1.145,8.578,8.578,0,0,1,2.577-.4m0,2.062a6,6,0,0,0-1.718.286,4.965,4.965,0,0,0-1.546.8,4.027,4.027,0,0,0-1.145,1.26,3.45,3.45,0,0,0,0,3.436,4.027,4.027,0,0,0,1.145,1.26,4.965,4.965,0,0,0,1.546.8,5.3,5.3,0,0,0,3.436,0,4.965,4.965,0,0,0,1.546-.8,4.027,4.027,0,0,0,1.145-1.26,3.45,3.45,0,0,0,0-3.436,4.028,4.028,0,0,0-1.145-1.26,4.965,4.965,0,0,0-1.546-.8,5.4,5.4,0,0,0-1.718-.286" transform="translate(-178.689 -79.042)" fill="#fff"/><path d="M278.45,90.924a.437.437,0,0,0,.115.286.614.614,0,0,0,.344.115v.4H275.3v-.4c.344,0,.515-.115.515-.4V80.5c0-.286-.172-.4-.515-.4v-.4h3.608v.4a.814.814,0,0,0-.344.115c-.115.057-.115.172-.115.286v4.352l4.753-3.722a4.684,4.684,0,0,0,.515-.458.523.523,0,0,0,.172-.286.3.3,0,0,0-.115-.229.344.344,0,0,0-.229-.057v-.4h4.81v.4a1.131,1.131,0,0,0-.8.344l-5.269,4.18,4.81,5.555a7.772,7.772,0,0,0,.687.687,1.924,1.924,0,0,0,.8.458v.4h-4.238v-.4c.172,0,.286-.057.286-.172a1.731,1.731,0,0,0-.344-.515l-3.951-4.524L278.392,87.6v3.321Z" transform="translate(-192.321 -79.127)" fill="#fff"/><path d="M300.315,91.382a.787.787,0,0,0,.458-.286,5.035,5.035,0,0,0,.344-.573l4.238-8.934c.115-.172.172-.4.286-.573a1.348,1.348,0,0,0,.115-.458.346.346,0,0,0-.172-.344.814.814,0,0,0-.344-.115v-.4h3.894v.4c-.115.057-.229.057-.344.115a.346.346,0,0,0-.172.344.727.727,0,0,0,.057.344,3.382,3.382,0,0,0,.229.458l4.753,9.334a.586.586,0,0,0,.286.344,3.4,3.4,0,0,0,.458.229v.4h-4.066v-.4a.433.433,0,0,0,.229-.057c.115-.057.115-.115.115-.229a1.28,1.28,0,0,0-.172-.573l-.859-1.718h-5.612l-.8,1.6a1.8,1.8,0,0,0-.229.687c0,.172.172.229.458.229v.4H300.2v-.229Zm8.647-4.295-1.947-4.295-2.176,4.295Z" transform="translate(-202.962 -79.127)" fill="#fff"/></g></svg>