<?xml version="1.0" encoding="utf-8"?>
<!-- Generator: Adobe Illustrator 25.2.0, SVG Export Plug-In . SVG Version: 6.00 Build 0)  -->
<svg version="1.1" id="レイヤー_1" xmlns="http://www.w3.org/2000/svg" xmlns:xlink="http://www.w3.org/1999/xlink" x="0px"
	 y="0px" width="33.2px" height="35.5px" viewBox="0 0 33.2 35.5" style="enable-background:new 0 0 33.2 35.5;"
	 xml:space="preserve">
<style type="text/css">
	.st0{fill:#591F7D;}
</style>
<g transform="translate(3003.308 -7779.686)">
	<path class="st0" d="M-2978,7789l-1.5,1.4l-7.5-7.9l-7.9,7.5l-1.4-1.5l9.4-8.9L-2978,7789z"/>
	<path class="st0" d="M-2999.4,7810.3c0,1.4-0.1,2.6-0.2,3.2c-0.1,0.4-0.2,0.8-0.5,0.8c-0.2,0-0.4,0.1-0.5,0c-0.2,0-0.2,0-0.2,0.1
		c0,0.1,0.1,0.2,0.3,0.2c0.6,0,1.5,0,1.9,0c0.4,0,1.4,0.1,2.4,0.1c0.2,0,0.3,0,0.3-0.1c0-0.1-0.1-0.1-0.2-0.1c-0.3,0-0.5,0-0.8-0.1
		c-0.4-0.1-0.5-0.4-0.6-0.8c-0.1-0.6,0-1.8,0-3.2l0.2-6.1l1.9,0.1c1.3,0.1,1.7,0.5,1.7,0.9l0,0.2c0,0.2,0,0.3,0.2,0.3
		c0.1,0,0.1-0.1,0.1-0.2c0-0.4,0.1-1.4,0.1-1.7c0-0.2,0-0.3-0.1-0.3c-0.1,0-0.3,0-0.4,0.1c-0.3,0-0.7,0.1-1,0l-5.9-0.2
		c-0.5,0-1.1-0.1-1.5-0.1c-0.2,0-0.4-0.1-0.6-0.2c-0.1,0-0.1,0.1-0.2,0.3c0,0.1-0.4,1.5-0.4,1.7c0,0.2,0,0.2,0.1,0.2
		s0.1-0.1,0.2-0.2c0.1-0.2,0.2-0.4,0.3-0.5c0.2-0.3,0.6-0.4,1.5-0.4l2.2,0L-2999.4,7810.3z M-2986.7,7815.2c3.3,0.2,6.1-2.2,6.4-5.5
		c0-0.2,0-0.3,0-0.5c0.1-3.4-2.2-5.7-5.9-5.8c-3.2-0.3-6,2-6.3,5.2c0,0.2,0,0.4,0,0.5c-0.2,3.1,2.2,5.9,5.4,6
		C-2987,7815.2-2986.9,7815.2-2986.7,7815.2z M-2986,7814.4c-2.9-0.1-4.5-2.6-4.5-5.7c0.1-3.7,2.1-4.6,3.8-4.6
		c2.5,0.1,4.3,2.2,4.2,5.6C-2982.5,7814-2985,7814.5-2986,7814.4z M-2977.2,7810.9c0,1.4-0.1,2.6-0.2,3.2c-0.1,0.4-0.2,0.8-0.5,0.8
		c-0.2,0-0.4,0-0.5,0c-0.2,0-0.2,0-0.2,0.1c0,0.1,0.1,0.2,0.3,0.2c0.6,0,1.5,0,1.9,0c0.4,0,1.3,0.1,2.3,0.1c0.2,0,0.3,0,0.3-0.1
		c0-0.1-0.1-0.1-0.2-0.1c-0.3,0-0.5,0-0.8-0.1c-0.4-0.1-0.5-0.4-0.6-0.8c-0.1-0.7,0-1.8,0-3.2l0.2-6c0-0.2,0.1-0.3,0.1-0.3
		c0.2,0,0.4-0.1,0.6,0c0.6,0,1.1,0.2,1.5,0.6c0.6,0.6,0.9,1.4,0.8,2.3c0,1.2-0.9,2.3-2.1,2.4c-0.3,0-0.4,0-0.4,0.2
		c0,0.1,0.1,0.1,0.2,0.1c0.1,0,0.2,0,0.3,0c1.9,0.1,3.6-1.3,3.8-3.3c0-0.1,0-0.2,0-0.3c0-0.7-0.2-1.3-0.7-1.8
		c-0.8-0.7-1.8-1-2.8-0.9c-0.7,0-1.6,0-2.2,0c-0.4,0-1.4-0.1-2.2-0.1c-0.2,0-0.3,0-0.3,0.1s0.1,0.1,0.3,0.1c0.2,0,0.4,0,0.6,0.1
		c0.5,0.1,0.6,0.4,0.6,0.9c0,0.5,0,0.9-0.1,3.2L-2977.2,7810.9z"/>
</g>
</svg>
