<svg xmlns="http://www.w3.org/2000/svg" width="33.15" height="35.47" viewBox="0 0 33.15 35.47"><g transform="translate(3003.308 -7779.686)"><path d="M866.276,2365.189l-1.414-1.414,7.693-7.693-7.693-7.693,1.414-1.414,9.107,9.107Z" transform="translate(-5343.381 8655.068) rotate(-90)" fill="#fff"/><path d="M-12.562-4.3c0,1.38,0,2.565-.075,3.195-.045.435-.135.765-.435.825a2.448,2.448,0,0,1-.54.06c-.18,0-.24.045-.24.12,0,.105.105.15.3.15.6,0,1.545-.045,1.89-.045.42,0,1.365.045,2.355.045.165,0,.285-.045.285-.15,0-.075-.075-.12-.24-.12a6.32,6.32,0,0,1-.765-.06c-.45-.06-.54-.39-.585-.81-.075-.645-.075-1.83-.075-3.21v-6.15l1.89.045c1.335.03,1.74.45,1.77.84l.015.165c.015.225.045.3.165.3.09,0,.12-.09.135-.24,0-.39.045-1.425.045-1.74,0-.225-.015-.315-.12-.315a3.6,3.6,0,0,0-.4.075,7.187,7.187,0,0,1-1.035.075h-5.94c-.5,0-1.065-.03-1.5-.075a3.475,3.475,0,0,1-.645-.18c-.09,0-.135.09-.18.285-.03.12-.315,1.485-.315,1.725,0,.165.03.24.135.24s.135-.06.165-.18a1.777,1.777,0,0,1,.255-.525c.225-.33.585-.4,1.455-.435l2.235-.06ZM.307.255a5.93,5.93,0,0,0,6.21-6.15c0-3.435-2.325-5.61-6.06-5.61a5.777,5.777,0,0,0-6.2,5.88A5.713,5.713,0,0,0,.307.255ZM.938-.5C-1.943-.5-3.668-2.97-3.668-6.09c0-3.735,1.965-4.7,3.69-4.7,2.46,0,4.395,2.085,4.395,5.445C4.417-1,1.988-.5.938-.5ZM9.652-4.3c0,1.38,0,2.565-.075,3.195-.06.435-.135.765-.435.825a2.448,2.448,0,0,1-.54.06c-.18,0-.24.045-.24.12,0,.105.1.15.3.15.6,0,1.545-.045,1.89-.045.39,0,1.335.045,2.325.045.165,0,.285-.045.285-.15,0-.075-.075-.12-.24-.12a6.32,6.32,0,0,1-.765-.06c-.45-.06-.54-.39-.585-.81C11.5-1.74,11.5-2.925,11.5-4.3v-6c0-.165.045-.255.12-.285a2.122,2.122,0,0,1,.585-.06,2.228,2.228,0,0,1,1.5.585,2.886,2.886,0,0,1,.885,2.25,2.362,2.362,0,0,1-2.01,2.475c-.315,0-.42.045-.42.165s.1.12.18.135a2.215,2.215,0,0,0,.315.015,3.53,3.53,0,0,0,3.69-3.63,2.606,2.606,0,0,0-.75-1.785A3.657,3.657,0,0,0,12.8-11.3c-.69,0-1.56.045-2.175.045-.42,0-1.365-.045-2.16-.045-.225,0-.33.03-.33.135s.09.135.255.135a3.085,3.085,0,0,1,.585.045c.495.1.615.345.645.855.03.48.03.9.03,3.18Z" transform="translate(-2986.5 7814.9)" fill="#fff"/></g></svg>