<svg xmlns="http://www.w3.org/2000/svg" width="51.268" height="45.241" viewBox="0 0 51.268 45.241">
  <path id="Path_245" data-name="Path 245" d="M219.633,338.336A16.176,16.176,0,0,1,233.9,362.131l-3.312-2.456a1.586,1.586,0,0,0-2.211.328h0a1.584,1.584,0,0,0,.328,2.209l3.437,2.549a16.172,16.172,0,1,1-12.508-26.424Zm-.288-12.9.288.033.288-.033c6.672.17,19.587.888,23.42,5.643,1.242,1.539,2.079,6.625,1.9,7.489l-.295,1.452c-.432,2.118-5.762,1.23-7.426.892-1.7-.345-7.231-1.591-6.784-3.786l.295-1.451c.176-.863,1.078-.869,1.508-1.635.251-.45.568-1.159-.418-1.152H207.142c-.985-.007-.668.7-.418,1.152.432.767,1.334.772,1.508,1.635l.3,1.451c.447,2.2-5.089,3.441-6.785,3.786-1.665.338-6.995,1.226-7.425-.892l-.295-1.452c-.176-.864.662-5.95,1.9-7.489,3.835-4.755,16.749-5.473,23.42-5.643Zm2.928,15.763a2.087,2.087,0,1,1,.257,2.94,2.088,2.088,0,0,1-.257-2.94Zm4.9,24.582a2.087,2.087,0,1,1-2.261-1.9,2.088,2.088,0,0,1,2.261,1.9Zm-5.473,2.131a2.087,2.087,0,1,1-1.247-2.676,2.087,2.087,0,0,1,1.247,2.676Zm-5.86-.381a2.087,2.087,0,1,1,0-2.951,2.088,2.088,0,0,1,0,2.951Zm-5.15-2.821a2.087,2.087,0,1,1,1.247-2.676,2.088,2.088,0,0,1-1.247,2.676Zm-3.474-4.735a2.087,2.087,0,1,1,2.261-1.9,2.086,2.086,0,0,1-2.261,1.9Zm-1.149-5.759a2.087,2.087,0,1,1,2.852-.764,2.085,2.085,0,0,1-2.852.764Zm1.394-5.7a2.087,2.087,0,1,1,2.906.514,2.085,2.085,0,0,1-2.906-.514Zm3.674-4.582a2.087,2.087,0,1,1,2.417,1.692,2.085,2.085,0,0,1-2.417-1.692Zm5.265-2.6a2.087,2.087,0,1,1,1.476,2.556,2.086,2.086,0,0,1-1.476-2.556Zm3.23,3.884a9.291,9.291,0,1,1-9.291,9.291,9.289,9.289,0,0,1,9.291-9.291Z" transform="translate(-194 -325.44)" fill="#591f7d" fill-rule="evenodd"/>
</svg>
